PathFileType	4	(X/Y/Z)	/Users/niels/Desktop/University/Third Semester/Perception and Action/Exam/Gymnastics Motion Tracking/Code for Gym Tracking/Analyzed Data/Webcam_Backflip/id2001_3_baseline_Sports2D/id2001_3_baseline_Sports2D_px_person00.trc
DataRate	CameraRate	NumFrames	NumMarkers	Units	OrigDataRate	OrigDataStartFrame	OrigNumFrames
29.888475836431226	29.888475836431226	12	22	m	29.888475836431226	168	269
Frame#	Time	Hip			RHip			RKnee			RAnkle			RBigToe			RSmallToe			RHeel			LHip			LKnee			LAnkle			LBigToe			LSmallToe			LHeel			Neck			Head			Nose			RShoulder			RElbow			RWrist			LShoulder			LElbow			LWrist		
		X1	Y1	Z1	X2	Y2	Z2	X3	Y3	Z3	X4	Y4	Z4	X5	Y5	Z5	X6	Y6	Z6	X7	Y7	Z7	X8	Y8	Z8	X9	Y9	Z9	X10	Y10	Z10	X11	Y11	Z11	X12	Y12	Z12	X13	Y13	Z13	X14	Y14	Z14	X15	Y15	Z15	X16	Y16	Z16	X17	Y17	Z17	X18	Y18	Z18	X19	Y19	Z19	X20	Y20	Z20	X21	Y21	Z21	X22	Y22	Z22
168	5.62089552238806	1.0066210763491978	-0.7438680731942268	0.0	0.9484040849476789	-0.7619175823877506	0.0	0.9688863079009538	-1.062463929156891	0.0	1.3012771581113365	-1.0837108172466072	0.0	1.6059312744140621	-1.1953297119140622	0.0	1.6316678466796872	-1.0674349365234375	0.0	1.3268730468750003	-1.0972822265625	0.0	1.0687912650795532	-0.7521235609823961	0.0	1.0716335353535713	-1.0553302637966302	0.0	1.3517717285156243	-1.0607098388671872	0.0	1.3989272460937503	-1.1993594970703132	0.0	1.3389144287109374	-1.1993594970703132	0.0	1.1831392822265623	-1.1112026367187497	0.0	0.9194750872853353	-0.21145947037932855	0.0	0.9252231213455043	-0.00833477459478458	0.0	0.9217294983194037	-0.08664448416167246	0.0	0.8022210372027955	-0.30294170677239063	0.0	0.7964511295254363	-0.6085796083220579	0.0	0.835345505488543	-0.8641697238987593	0.0	1.0353602912531055	-0.28279355362844805	0.0	1.1010290836032524	-0.5196012913772348	0.0	1.1728623805450458	-0.7111335124927606	0.0
169	5.654353233830847	1.0078045263973292	-0.7436672412150263	0.0	0.9498128179244166	-0.7617832516458853	0.0	0.969858335039504	-1.0626008973000913	0.0	1.3012772098375458	-1.0837108188534588	0.0	1.6059312744140621	-1.1953297119140622	0.0	1.6316678466796872	-1.0674349365234375	0.0	1.3268730468750003	-1.0972822265625	0.0	1.0694860874629226	-0.7518193528331485	0.0	1.0725465047505836	-1.0552534599621288	0.0	1.3517717285156243	-1.0607098388671872	0.0	1.3989272460937503	-1.1993594970703132	0.0	1.3389144287109374	-1.1993594970703132	0.0	1.1831392822265623	-1.1112026367187497	0.0	0.9206313273915966	-0.21114247755027116	0.0	0.9267207523165472	-0.007857095946612495	0.0	0.9231316941813479	-0.08634310313763177	0.0	0.8030365607148846	-0.3024648642962866	0.0	0.7978531288556086	-0.6083837229704184	0.0	0.8380750035634962	-0.8636277388625883	0.0	1.0361573234793464	-0.2829320176978787	0.0	1.1021731480826769	-0.5192185723437729	0.0	1.1735771949552631	-0.7112062954854651	0.0
170	5.6878109452736325	1.0086391028391726	-0.7433748056641011	0.0	0.9506395796751864	-0.7615541757025431	0.0	0.9705641478668211	-1.0627163724181825	0.0	1.3012772630939373	-1.0837108205081178	0.0	1.6059312744140621	-1.1953297119140622	0.0	1.6316678466796872	-1.0674349365234375	0.0	1.3268730468750003	-1.0972822265625	0.0	1.0701757785964192	-0.7514888442825147	0.0	1.0734723991385748	-1.0550425742421663	0.0	1.3517717285156243	-1.0607098388671872	0.0	1.3989272460937503	-1.1993594970703132	0.0	1.3389144287109374	-1.1993594970703132	0.0	1.1831392822265623	-1.1112026367187497	0.0	0.9218827511350797	-0.21101767715047548	0.0	0.9281876352490129	-0.007726593835202976	0.0	0.9245068076043018	-0.086065318341818	0.0	0.8039179623079858	-0.30196977050426077	0.0	0.7991108875494611	-0.6080300946908856	0.0	0.8404211955961215	-0.8631452488029535	0.0	1.037158801223196	-0.28342606183338237	0.0	1.1032243572307003	-0.5188746752294522	0.0	1.1742464216744959	-0.7113859499883912	0.0
171	5.721268656716418	1.009176275351034	-0.7429587108568088	0.0	0.9510479974937835	-0.7612564354126415	0.0	0.9708908278106518	-1.0627112776309773	0.0	1.3012772852469714	-1.0837108211970483	0.0	1.6059312744140621	-1.1953297119140622	0.0	1.6316678466796872	-1.0674349365234375	0.0	1.3268730468750003	-1.0972822265625	0.0	1.070825393605328	-0.751183030594766	0.0	1.0742588722592108	-1.0546461060562218	0.0	1.3517717285156243	-1.0607098388671872	0.0	1.3989272460937503	-1.1993594970703132	0.0	1.3389144287109374	-1.1993594970703132	0.0	1.1831392822265623	-1.1112026367187497	0.0	0.9233090042254872	-0.21117269777087883	0.0	0.9297453853277742	-0.007957148103257499	0.0	0.9258655280068533	-0.08580739217370098	0.0	0.8049187645509283	-0.30144194361609067	0.0	0.8002937423822041	-0.6075827123664064	0.0	0.8423586512907649	-0.8627484951339899	0.0	1.0384087757925076	-0.28419906154734664	0.0	1.1041260074715957	-0.5185851953974268	0.0	1.1748844158342988	-0.7116296495965414	0.0
172	5.754726368159204	1.0095145005249098	-0.7424205407241676	0.0	0.9512156246006472	-0.76094173776289	0.0	0.9707137323198859	-1.0625545541237407	0.0	1.3012772175730436	-1.0837108190962206	0.0	1.6059312744140621	-1.1953297119140622	0.0	1.6316678466796872	-1.0674349365234375	0.0	1.3268730468750003	-1.0972822265625	0.0	1.0713921575470327	-0.7509275161971878	0.0	1.0747218050807144	-1.0540834331799793	0.0	1.3517717285156243	-1.0607098388671872	0.0	1.3989272460937503	-1.1993594970703132	0.0	1.3389144287109374	-1.1993594970703132	0.0	1.1831392822265623	-1.1112026367187497	0.0	0.9250599976759947	-0.2115984990617308	0.0	0.9314624202649479	-0.008502292873511579	0.0	0.927304575432644	-0.08559878064399622	0.0	0.8061962439220035	-0.300801235461765	0.0	0.8015163290092263	-0.6069985163823979	0.0	0.8438937478508955	-0.8623628985726115	0.0	1.039998971563662	-0.2852061226100192	0.0	1.1049678148972193	-0.5184448214798043	0.0	1.1754373586576066	-0.7118686828512848	0.0
173	5.788184079601991	1.009749557909597	-0.7418549337822027	0.0	0.951236916059413	-0.7607520545058384	0.0	0.9700733488194465	-1.062360342355873	0.0	1.3012769765298537	-1.083710811610456	0.0	1.6059312744140621	-1.1953297119140622	0.0	1.6316678466796872	-1.0674349365234375	0.0	1.3268730468750003	-1.0972822265625	0.0	1.0718319414995305	-0.7507900312531873	0.0	1.0748712277836978	-1.053528078457743	0.0	1.3517717285156243	-1.0607098388671872	0.0	1.3989272460937503	-1.1993594970703132	0.0	1.3389144287109374	-1.1993594970703132	0.0	1.1831392822265623	-1.1112026367187497	0.0	0.9273102661212567	-0.21221542243540417	0.0	0.933379565830697	-0.009281236805882076	0.0	0.9289779019076101	-0.08552816774783646	0.0	0.8080003321265589	-0.2999472881542803	0.0	0.8028986514828975	-0.6062126168132002	0.0	0.8450494879413138	-0.8618867387771849	0.0	1.0420700213120895	-0.2863899073418844	0.0	1.10596822834283	-0.5186066800586697	0.0	1.1758600883427504	-0.712099207873243	0.0
174	5.821641791044777	1.009877235839237	-0.7414738902687105	0.0	0.9511058907637588	-0.7609028859001777	0.0	0.9692551194199637	-1.0623011532558082	0.0	1.3012764730585988	-1.0837107959727856	0.0	1.6059312744140621	-1.1953297119140622	0.0	1.6316678466796872	-1.0674349365234375	0.0	1.3268730468750003	-1.0972822265625	0.0	1.0720693457582464	-0.7509451796533058	0.0	1.0748371746369587	-1.0531993210978412	0.0	1.3517717285156243	-1.0607098388671872	0.0	1.3989272460937503	-1.1993594970703132	0.0	1.3389144287109374	-1.1993594970703132	0.0	1.1831392822265623	-1.1112026367187497	0.0	0.9301827442906969	-0.21295829437966154	0.0	0.9355969317438204	-0.010214862705036043	0.0	0.9310487800660496	-0.08570581575564888	0.0	0.810542195622845	-0.29890249758846454	0.0	0.8044550735884803	-0.6052527223479545	0.0	0.8458294527803464	-0.8612512806870044	0.0	1.0447825763352885	-0.2877003108563573	0.0	1.107348690714557	-0.5192293300463213	0.0	1.1761608267550745	-0.7124184062894817	0.0
175	5.855099502487563	1.0098098138731617	-0.7415451426099555	0.0	0.9508242388271776	-0.761585176880025	0.0	0.9687877624922875	-1.0624197950923988	0.0	1.3012756629487552	-1.0837107708086688	0.0	1.6059312744140621	-1.1953297119140622	0.0	1.6316678466796872	-1.0674349365234375	0.0	1.3268730468750003	-1.0972822265625	0.0	1.0720464774880252	-0.7516279146500419	0.0	1.0746916149044818	-1.0531463792337417	0.0	1.3517717285156243	-1.0607098388671872	0.0	1.3989272460937503	-1.1993594970703132	0.0	1.3389144287109374	-1.1993594970703132	0.0	1.1831392822265623	-1.1112026367187497	0.0	0.9337105791159646	-0.2138406373200719	0.0	0.9382969718854683	-0.011248545776308527	0.0	0.9336633449103876	-0.0861936640867306	0.0	0.8138453685128851	-0.29790302906388194	0.0	0.8060368272846467	-0.6043099358553408	0.0	0.8462331321976896	-0.8604630676962782	0.0	1.0482865107004191	-0.2891491021010921	0.0	1.109201962358367	-0.5204205180109056	0.0	1.1763950317967409	-0.7130038044250451	0.0
176	5.888557213930349	1.0095267751830823	-0.7422811447154692	0.0	0.9505071855614771	-0.7628814709429991	0.0	0.9693336449927972	-1.062574619666237	0.0	1.3012746395309605	-1.083710739015128	0.0	1.6059312744140621	-1.1953297119140622	0.0	1.6316678466796872	-1.0674349365234375	0.0	1.3268730468750003	-1.0972822265625	0.0	1.0717895569144331	-0.7529878915830894	0.0	1.074464775517336	-1.0532124168437818	0.0	1.3517717285156243	-1.0607098388671872	0.0	1.3989272460937503	-1.1993594970703132	0.0	1.3389144287109374	-1.1993594970703132	0.0	1.1831392822265623	-1.1112026367187497	0.0	0.9378450755173543	-0.21490654471639153	0.0	0.941681084735114	-0.012319265207147467	0.0	0.9369743599669293	-0.08700375643765158	0.0	0.81770568137892	-0.2972937571986683	0.0	0.8074236519359559	-0.6037459748443507	0.0	0.8462951688486363	-0.8596391037163424	0.0	1.0526521391001844	-0.2907433614168272	0.0	1.1114568338145567	-0.5221518725192097	0.0	1.1766458076834378	-0.7140330685235801	0.0
177	5.9220149253731345	1.0091305685486909	-0.7437092160231382	0.0	0.9503288287963965	-0.7647103135348423	0.0	0.9714426050028715	-1.0626342538787337	0.0	1.3012737683212958	-1.0837107119433318	0.0	1.6059312744140621	-1.1953297119140622	0.0	1.6316678466796872	-1.0674349365234375	0.0	1.3268730468750003	-1.0972822265625	0.0	1.0713862165434442	-0.7549424996137096	0.0	1.0742301905308111	-1.0532621473831132	0.0	1.3517717285156243	-1.0607098388671872	0.0	1.3989272460937503	-1.1993594970703132	0.0	1.3389144287109374	-1.1993594970703132	0.0	1.1831392822265623	-1.1112026367187497	0.0	0.9424680498022868	-0.21613229407657586	0.0	0.9459030038175921	-0.01332571033894417	0.0	0.9411235801207777	-0.08811893866669317	0.0	0.8217736588146134	-0.29731908053312944	0.0	0.80842347466727	-0.6039457089051647	0.0	0.8461045775285425	-0.8589625168110498	0.0	1.0578025411966183	-0.2923667490458971	0.0	1.1139899812408498	-0.5242143434369899	0.0	1.1769940820731533	-0.7155858832703854	0.0
178	5.955472636815921	1.0087765123126666	-0.7456737042391376	0.0	0.9504269587386143	-0.7668533277193061	0.0	0.9753856440509796	-1.0626603775071681	0.0	1.301273835283572	-1.0837107140048692	0.0	1.6059312744140621	-1.1953297119140622	0.0	1.6316678466796872	-1.0674349365234375	0.0	1.3268730468750003	-1.0972822265625	0.0	1.0709655103072382	-0.7571934740280465	0.0	1.0741671739822307	-1.0533523387198973	0.0	1.3517717285156243	-1.0607098388671872	0.0	1.3989272460937503	-1.1993594970703132	0.0	1.3389144287109374	-1.1993594970703132	0.0	1.1831392822265623	-1.1112026367187497	0.0	0.9474048271252395	-0.21738245647879062	0.0	0.9510454436021927	-0.014104370419583716	0.0	0.9461171798492664	-0.08944464199759619	0.0	0.8257023892622566	-0.29802731141611744	0.0	0.8088655948831974	-0.6050933320807169	0.0	0.8458017661992185	-0.858591161396859	0.0	1.063531928952576	-0.2938186858393451	0.0	1.1167565086978055	-0.5263119199147236	0.0	1.1774890478234414	-0.7176494175332638	0.0
179	5.988930348258707	1.008609122390252	-0.7479663365905611	0.0	0.9508574899885388	-0.7690791482621037	0.0	0.981128293305456	-1.0628421563076564	0.0	1.3012761311715848	-1.0837107852935783	0.0	1.6059312744140621	-1.1953297119140622	0.0	1.6316678466796872	-1.0674349365234375	0.0	1.3268730468750003	-1.0972822265625	0.0	1.070727368977949	-0.7594218568984302	0.0	1.0744984374043287	-1.0536102981850086	0.0	1.3517717285156243	-1.0607098388671872	0.0	1.3989272460937503	-1.1993594970703132	0.0	1.3389144287109374	-1.1993594970703132	0.0	1.1831392822265623	-1.1112026367187497	0.0	0.952454310546697	-0.2184342766960927	0.0	0.9570539129357768	-0.014456861506859375	0.0	0.951750013126284	-0.09075657938473485	0.0	0.829256210981442	-0.2993210260543551	0.0	0.8085990497845333	-0.6071363748878171	0.0	0.8455012897413092	-0.858617199812353	0.0	1.0695662974195235	-0.2949222725763109	0.0	1.1197809055018486	-0.528169068923901	0.0	1.1781147113239523	-0.7201551055214247	0.0
